<mxfile host="Electron" agent="Mozilla/5.0 (X11; Linux x86_64) AppleWebKit/537.36 (KHTML, like Gecko) draw.io/24.7.5 Chrome/126.0.6478.183 Electron/31.3.0 Safari/537.36" version="24.7.5">
  <diagram name="Страница — 1" id="VpNp2RohpKVzOhCPtYdV">
    <mxGraphModel dx="2876" dy="2380" grid="1" gridSize="10" guides="1" tooltips="1" connect="1" arrows="1" fold="1" page="1" pageScale="1" pageWidth="827" pageHeight="1169" math="0" shadow="0">
      <root>
        <mxCell id="0" />
        <mxCell id="1" parent="0" />
        <mxCell id="bYDsQo14aCg1KLKc_yVK-27" value="contacts" style="swimlane;fontStyle=0;childLayout=stackLayout;horizontal=1;startSize=30;horizontalStack=0;resizeParent=1;resizeParentMax=0;resizeLast=0;collapsible=1;marginBottom=0;whiteSpace=wrap;html=1;rounded=1;swimlaneLine=1;" parent="1" vertex="1">
          <mxGeometry x="350" y="490" width="143" height="210" as="geometry" />
        </mxCell>
        <mxCell id="bYDsQo14aCg1KLKc_yVK-28" value="contacts_id" style="text;strokeColor=#d6b656;fillColor=#fff2cc;align=left;verticalAlign=middle;spacingLeft=4;spacingRight=4;overflow=hidden;points=[[0,0.5],[1,0.5]];portConstraint=eastwest;rotatable=0;whiteSpace=wrap;html=1;" parent="bYDsQo14aCg1KLKc_yVK-27" vertex="1">
          <mxGeometry y="30" width="143" height="30" as="geometry" />
        </mxCell>
        <mxCell id="bYDsQo14aCg1KLKc_yVK-29" value="name" style="text;strokeColor=none;fillColor=none;align=left;verticalAlign=middle;spacingLeft=4;spacingRight=4;overflow=hidden;points=[[0,0.5],[1,0.5]];portConstraint=eastwest;rotatable=0;whiteSpace=wrap;html=1;" parent="bYDsQo14aCg1KLKc_yVK-27" vertex="1">
          <mxGeometry y="60" width="143" height="30" as="geometry" />
        </mxCell>
        <mxCell id="bYDsQo14aCg1KLKc_yVK-30" value="phone" style="text;strokeColor=none;fillColor=none;align=left;verticalAlign=middle;spacingLeft=4;spacingRight=4;overflow=hidden;points=[[0,0.5],[1,0.5]];portConstraint=eastwest;rotatable=0;whiteSpace=wrap;html=1;" parent="bYDsQo14aCg1KLKc_yVK-27" vertex="1">
          <mxGeometry y="90" width="143" height="30" as="geometry" />
        </mxCell>
        <mxCell id="bYDsQo14aCg1KLKc_yVK-31" value="email" style="text;strokeColor=none;fillColor=none;align=left;verticalAlign=middle;spacingLeft=4;spacingRight=4;overflow=hidden;points=[[0,0.5],[1,0.5]];portConstraint=eastwest;rotatable=0;whiteSpace=wrap;html=1;" parent="bYDsQo14aCg1KLKc_yVK-27" vertex="1">
          <mxGeometry y="120" width="143" height="30" as="geometry" />
        </mxCell>
        <mxCell id="bYDsQo14aCg1KLKc_yVK-32" value="position" style="text;strokeColor=none;fillColor=none;align=left;verticalAlign=middle;spacingLeft=4;spacingRight=4;overflow=hidden;points=[[0,0.5],[1,0.5]];portConstraint=eastwest;rotatable=0;whiteSpace=wrap;html=1;" parent="bYDsQo14aCg1KLKc_yVK-27" vertex="1">
          <mxGeometry y="150" width="143" height="30" as="geometry" />
        </mxCell>
        <mxCell id="bYDsQo14aCg1KLKc_yVK-33" value="department_id" style="text;strokeColor=#6c8ebf;fillColor=#dae8fc;align=left;verticalAlign=middle;spacingLeft=4;spacingRight=4;overflow=hidden;points=[[0,0.5],[1,0.5]];portConstraint=eastwest;rotatable=0;whiteSpace=wrap;html=1;" parent="bYDsQo14aCg1KLKc_yVK-27" vertex="1">
          <mxGeometry y="180" width="143" height="30" as="geometry" />
        </mxCell>
        <mxCell id="bYDsQo14aCg1KLKc_yVK-35" value="about" style="swimlane;fontStyle=0;childLayout=stackLayout;horizontal=1;startSize=30;horizontalStack=0;resizeParent=1;resizeParentMax=0;resizeLast=0;collapsible=1;marginBottom=0;whiteSpace=wrap;html=1;rounded=1;swimlaneLine=1;" parent="1" vertex="1">
          <mxGeometry x="580" y="297.5" width="143" height="180" as="geometry" />
        </mxCell>
        <mxCell id="bYDsQo14aCg1KLKc_yVK-36" value="about_id" style="text;strokeColor=#d6b656;fillColor=#fff2cc;align=left;verticalAlign=middle;spacingLeft=4;spacingRight=4;overflow=hidden;points=[[0,0.5],[1,0.5]];portConstraint=eastwest;rotatable=0;whiteSpace=wrap;html=1;" parent="bYDsQo14aCg1KLKc_yVK-35" vertex="1">
          <mxGeometry y="30" width="143" height="30" as="geometry" />
        </mxCell>
        <mxCell id="bYDsQo14aCg1KLKc_yVK-37" value="description" style="text;strokeColor=none;fillColor=none;align=left;verticalAlign=middle;spacingLeft=4;spacingRight=4;overflow=hidden;points=[[0,0.5],[1,0.5]];portConstraint=eastwest;rotatable=0;whiteSpace=wrap;html=1;" parent="bYDsQo14aCg1KLKc_yVK-35" vertex="1">
          <mxGeometry y="60" width="143" height="30" as="geometry" />
        </mxCell>
        <mxCell id="DQ1Y1zzr41KNzS0MEqR3-49" value="working_hours" style="text;strokeColor=none;fillColor=none;align=left;verticalAlign=middle;spacingLeft=4;spacingRight=4;overflow=hidden;points=[[0,0.5],[1,0.5]];portConstraint=eastwest;rotatable=0;whiteSpace=wrap;html=1;" vertex="1" parent="bYDsQo14aCg1KLKc_yVK-35">
          <mxGeometry y="90" width="143" height="30" as="geometry" />
        </mxCell>
        <mxCell id="DQ1Y1zzr41KNzS0MEqR3-50" value="address" style="text;strokeColor=none;fillColor=none;align=left;verticalAlign=middle;spacingLeft=4;spacingRight=4;overflow=hidden;points=[[0,0.5],[1,0.5]];portConstraint=eastwest;rotatable=0;whiteSpace=wrap;html=1;" vertex="1" parent="bYDsQo14aCg1KLKc_yVK-35">
          <mxGeometry y="120" width="143" height="30" as="geometry" />
        </mxCell>
        <mxCell id="DQ1Y1zzr41KNzS0MEqR3-51" value="phone" style="text;strokeColor=none;fillColor=none;align=left;verticalAlign=middle;spacingLeft=4;spacingRight=4;overflow=hidden;points=[[0,0.5],[1,0.5]];portConstraint=eastwest;rotatable=0;whiteSpace=wrap;html=1;" vertex="1" parent="bYDsQo14aCg1KLKc_yVK-35">
          <mxGeometry y="150" width="143" height="30" as="geometry" />
        </mxCell>
        <mxCell id="bYDsQo14aCg1KLKc_yVK-43" value="mailing" style="swimlane;fontStyle=0;childLayout=stackLayout;horizontal=1;startSize=30;horizontalStack=0;resizeParent=1;resizeParentMax=0;resizeLast=0;collapsible=1;marginBottom=0;whiteSpace=wrap;html=1;rounded=1;swimlaneLine=1;" parent="1" vertex="1">
          <mxGeometry x="190" y="380" width="143" height="90" as="geometry" />
        </mxCell>
        <mxCell id="bYDsQo14aCg1KLKc_yVK-44" value="mailing_id" style="text;strokeColor=#d6b656;fillColor=#fff2cc;align=left;verticalAlign=middle;spacingLeft=4;spacingRight=4;overflow=hidden;points=[[0,0.5],[1,0.5]];portConstraint=eastwest;rotatable=0;whiteSpace=wrap;html=1;" parent="bYDsQo14aCg1KLKc_yVK-43" vertex="1">
          <mxGeometry y="30" width="143" height="30" as="geometry" />
        </mxCell>
        <mxCell id="bYDsQo14aCg1KLKc_yVK-45" value="user_id" style="text;strokeColor=#6c8ebf;fillColor=#dae8fc;align=left;verticalAlign=middle;spacingLeft=4;spacingRight=4;overflow=hidden;points=[[0,0.5],[1,0.5]];portConstraint=eastwest;rotatable=0;whiteSpace=wrap;html=1;" parent="bYDsQo14aCg1KLKc_yVK-43" vertex="1">
          <mxGeometry y="60" width="143" height="30" as="geometry" />
        </mxCell>
        <mxCell id="bYDsQo14aCg1KLKc_yVK-51" value="services" style="swimlane;fontStyle=0;childLayout=stackLayout;horizontal=1;startSize=30;horizontalStack=0;resizeParent=1;resizeParentMax=0;resizeLast=0;collapsible=1;marginBottom=0;whiteSpace=wrap;html=1;rounded=1;swimlaneLine=1;" parent="1" vertex="1">
          <mxGeometry x="350" y="320" width="143" height="150" as="geometry" />
        </mxCell>
        <mxCell id="bYDsQo14aCg1KLKc_yVK-52" value="services_id" style="text;strokeColor=#d6b656;fillColor=#fff2cc;align=left;verticalAlign=middle;spacingLeft=4;spacingRight=4;overflow=hidden;points=[[0,0.5],[1,0.5]];portConstraint=eastwest;rotatable=0;whiteSpace=wrap;html=1;" parent="bYDsQo14aCg1KLKc_yVK-51" vertex="1">
          <mxGeometry y="30" width="143" height="30" as="geometry" />
        </mxCell>
        <mxCell id="bYDsQo14aCg1KLKc_yVK-53" value="name" style="text;strokeColor=none;fillColor=none;align=left;verticalAlign=middle;spacingLeft=4;spacingRight=4;overflow=hidden;points=[[0,0.5],[1,0.5]];portConstraint=eastwest;rotatable=0;whiteSpace=wrap;html=1;" parent="bYDsQo14aCg1KLKc_yVK-51" vertex="1">
          <mxGeometry y="60" width="143" height="30" as="geometry" />
        </mxCell>
        <mxCell id="bYDsQo14aCg1KLKc_yVK-54" value=" description" style="text;strokeColor=none;fillColor=none;align=left;verticalAlign=middle;spacingLeft=4;spacingRight=4;overflow=hidden;points=[[0,0.5],[1,0.5]];portConstraint=eastwest;rotatable=0;whiteSpace=wrap;html=1;" parent="bYDsQo14aCg1KLKc_yVK-51" vertex="1">
          <mxGeometry y="90" width="143" height="30" as="geometry" />
        </mxCell>
        <mxCell id="bYDsQo14aCg1KLKc_yVK-55" value="department_id" style="text;strokeColor=#6c8ebf;fillColor=#dae8fc;align=left;verticalAlign=middle;spacingLeft=4;spacingRight=4;overflow=hidden;points=[[0,0.5],[1,0.5]];portConstraint=eastwest;rotatable=0;whiteSpace=wrap;html=1;" parent="bYDsQo14aCg1KLKc_yVK-51" vertex="1">
          <mxGeometry y="120" width="143" height="30" as="geometry" />
        </mxCell>
        <mxCell id="bYDsQo14aCg1KLKc_yVK-59" value="faq" style="swimlane;fontStyle=0;childLayout=stackLayout;horizontal=1;startSize=30;horizontalStack=0;resizeParent=1;resizeParentMax=0;resizeLast=0;collapsible=1;marginBottom=0;whiteSpace=wrap;html=1;rounded=1;swimlaneLine=1;" parent="1" vertex="1">
          <mxGeometry x="580" y="490" width="143" height="120" as="geometry" />
        </mxCell>
        <mxCell id="bYDsQo14aCg1KLKc_yVK-60" value="faq_id" style="text;strokeColor=#d6b656;fillColor=#fff2cc;align=left;verticalAlign=middle;spacingLeft=4;spacingRight=4;overflow=hidden;points=[[0,0.5],[1,0.5]];portConstraint=eastwest;rotatable=0;whiteSpace=wrap;html=1;" parent="bYDsQo14aCg1KLKc_yVK-59" vertex="1">
          <mxGeometry y="30" width="143" height="30" as="geometry" />
        </mxCell>
        <mxCell id="bYDsQo14aCg1KLKc_yVK-61" value="question" style="text;strokeColor=none;fillColor=none;align=left;verticalAlign=middle;spacingLeft=4;spacingRight=4;overflow=hidden;points=[[0,0.5],[1,0.5]];portConstraint=eastwest;rotatable=0;whiteSpace=wrap;html=1;" parent="bYDsQo14aCg1KLKc_yVK-59" vertex="1">
          <mxGeometry y="60" width="143" height="30" as="geometry" />
        </mxCell>
        <mxCell id="bYDsQo14aCg1KLKc_yVK-62" value="answer" style="text;strokeColor=none;fillColor=none;align=left;verticalAlign=middle;spacingLeft=4;spacingRight=4;overflow=hidden;points=[[0,0.5],[1,0.5]];portConstraint=eastwest;rotatable=0;whiteSpace=wrap;html=1;" parent="bYDsQo14aCg1KLKc_yVK-59" vertex="1">
          <mxGeometry y="90" width="143" height="30" as="geometry" />
        </mxCell>
        <mxCell id="DQ1Y1zzr41KNzS0MEqR3-5" value="users" style="swimlane;fontStyle=0;childLayout=stackLayout;horizontal=1;startSize=30;horizontalStack=0;resizeParent=1;resizeParentMax=0;resizeLast=0;collapsible=1;marginBottom=0;whiteSpace=wrap;html=1;rounded=1;swimlaneLine=1;" vertex="1" parent="1">
          <mxGeometry x="-10" y="410" width="143" height="150" as="geometry" />
        </mxCell>
        <mxCell id="DQ1Y1zzr41KNzS0MEqR3-6" value="user_id" style="text;strokeColor=#d6b656;fillColor=#fff2cc;align=left;verticalAlign=middle;spacingLeft=4;spacingRight=4;overflow=hidden;points=[[0,0.5],[1,0.5]];portConstraint=eastwest;rotatable=0;whiteSpace=wrap;html=1;" vertex="1" parent="DQ1Y1zzr41KNzS0MEqR3-5">
          <mxGeometry y="30" width="143" height="30" as="geometry" />
        </mxCell>
        <mxCell id="DQ1Y1zzr41KNzS0MEqR3-7" value="full_name" style="text;strokeColor=none;fillColor=none;align=left;verticalAlign=middle;spacingLeft=4;spacingRight=4;overflow=hidden;points=[[0,0.5],[1,0.5]];portConstraint=eastwest;rotatable=0;whiteSpace=wrap;html=1;" vertex="1" parent="DQ1Y1zzr41KNzS0MEqR3-5">
          <mxGeometry y="60" width="143" height="30" as="geometry" />
        </mxCell>
        <mxCell id="DQ1Y1zzr41KNzS0MEqR3-8" value="phone" style="text;strokeColor=none;fillColor=none;align=left;verticalAlign=middle;spacingLeft=4;spacingRight=4;overflow=hidden;points=[[0,0.5],[1,0.5]];portConstraint=eastwest;rotatable=0;whiteSpace=wrap;html=1;" vertex="1" parent="DQ1Y1zzr41KNzS0MEqR3-5">
          <mxGeometry y="90" width="143" height="30" as="geometry" />
        </mxCell>
        <mxCell id="DQ1Y1zzr41KNzS0MEqR3-9" value="created_at" style="text;strokeColor=none;fillColor=none;align=left;verticalAlign=middle;spacingLeft=4;spacingRight=4;overflow=hidden;points=[[0,0.5],[1,0.5]];portConstraint=eastwest;rotatable=0;whiteSpace=wrap;html=1;" vertex="1" parent="DQ1Y1zzr41KNzS0MEqR3-5">
          <mxGeometry y="120" width="143" height="30" as="geometry" />
        </mxCell>
        <mxCell id="DQ1Y1zzr41KNzS0MEqR3-12" value="requests" style="swimlane;fontStyle=0;childLayout=stackLayout;horizontal=1;startSize=30;horizontalStack=0;resizeParent=1;resizeParentMax=0;resizeLast=0;collapsible=1;marginBottom=0;whiteSpace=wrap;html=1;rounded=1;swimlaneLine=1;" vertex="1" parent="1">
          <mxGeometry x="200" y="-110" width="143" height="300" as="geometry" />
        </mxCell>
        <mxCell id="DQ1Y1zzr41KNzS0MEqR3-13" value="request_id" style="text;strokeColor=#d6b656;fillColor=#fff2cc;align=left;verticalAlign=middle;spacingLeft=4;spacingRight=4;overflow=hidden;points=[[0,0.5],[1,0.5]];portConstraint=eastwest;rotatable=0;whiteSpace=wrap;html=1;" vertex="1" parent="DQ1Y1zzr41KNzS0MEqR3-12">
          <mxGeometry y="30" width="143" height="30" as="geometry" />
        </mxCell>
        <mxCell id="DQ1Y1zzr41KNzS0MEqR3-14" value="user_id" style="text;strokeColor=#6c8ebf;fillColor=#dae8fc;align=left;verticalAlign=middle;spacingLeft=4;spacingRight=4;overflow=hidden;points=[[0,0.5],[1,0.5]];portConstraint=eastwest;rotatable=0;whiteSpace=wrap;html=1;" vertex="1" parent="DQ1Y1zzr41KNzS0MEqR3-12">
          <mxGeometry y="60" width="143" height="30" as="geometry" />
        </mxCell>
        <mxCell id="DQ1Y1zzr41KNzS0MEqR3-15" value="request_text" style="text;strokeColor=none;fillColor=none;align=left;verticalAlign=middle;spacingLeft=4;spacingRight=4;overflow=hidden;points=[[0,0.5],[1,0.5]];portConstraint=eastwest;rotatable=0;whiteSpace=wrap;html=1;" vertex="1" parent="DQ1Y1zzr41KNzS0MEqR3-12">
          <mxGeometry y="90" width="143" height="30" as="geometry" />
        </mxCell>
        <mxCell id="DQ1Y1zzr41KNzS0MEqR3-16" value="selected_date" style="text;strokeColor=none;fillColor=none;align=left;verticalAlign=middle;spacingLeft=4;spacingRight=4;overflow=hidden;points=[[0,0.5],[1,0.5]];portConstraint=eastwest;rotatable=0;whiteSpace=wrap;html=1;" vertex="1" parent="DQ1Y1zzr41KNzS0MEqR3-12">
          <mxGeometry y="120" width="143" height="30" as="geometry" />
        </mxCell>
        <mxCell id="DQ1Y1zzr41KNzS0MEqR3-17" value="status_id" style="text;strokeColor=#6c8ebf;fillColor=#dae8fc;align=left;verticalAlign=middle;spacingLeft=4;spacingRight=4;overflow=hidden;points=[[0,0.5],[1,0.5]];portConstraint=eastwest;rotatable=0;whiteSpace=wrap;html=1;" vertex="1" parent="DQ1Y1zzr41KNzS0MEqR3-12">
          <mxGeometry y="150" width="143" height="30" as="geometry" />
        </mxCell>
        <mxCell id="DQ1Y1zzr41KNzS0MEqR3-18" value="department_id" style="text;strokeColor=#6c8ebf;fillColor=#dae8fc;align=left;verticalAlign=middle;spacingLeft=4;spacingRight=4;overflow=hidden;points=[[0,0.5],[1,0.5]];portConstraint=eastwest;rotatable=0;whiteSpace=wrap;html=1;" vertex="1" parent="DQ1Y1zzr41KNzS0MEqR3-12">
          <mxGeometry y="180" width="143" height="30" as="geometry" />
        </mxCell>
        <mxCell id="DQ1Y1zzr41KNzS0MEqR3-40" value="rejection_reason" style="text;strokeColor=none;fillColor=none;align=left;verticalAlign=middle;spacingLeft=4;spacingRight=4;overflow=hidden;points=[[0,0.5],[1,0.5]];portConstraint=eastwest;rotatable=0;whiteSpace=wrap;html=1;" vertex="1" parent="DQ1Y1zzr41KNzS0MEqR3-12">
          <mxGeometry y="210" width="143" height="30" as="geometry" />
        </mxCell>
        <mxCell id="DQ1Y1zzr41KNzS0MEqR3-41" value="created_at" style="text;strokeColor=none;fillColor=none;align=left;verticalAlign=middle;spacingLeft=4;spacingRight=4;overflow=hidden;points=[[0,0.5],[1,0.5]];portConstraint=eastwest;rotatable=0;whiteSpace=wrap;html=1;" vertex="1" parent="DQ1Y1zzr41KNzS0MEqR3-12">
          <mxGeometry y="240" width="143" height="30" as="geometry" />
        </mxCell>
        <mxCell id="DQ1Y1zzr41KNzS0MEqR3-42" value="updated_at" style="text;strokeColor=none;fillColor=none;align=left;verticalAlign=middle;spacingLeft=4;spacingRight=4;overflow=hidden;points=[[0,0.5],[1,0.5]];portConstraint=eastwest;rotatable=0;whiteSpace=wrap;html=1;" vertex="1" parent="DQ1Y1zzr41KNzS0MEqR3-12">
          <mxGeometry y="270" width="143" height="30" as="geometry" />
        </mxCell>
        <mxCell id="DQ1Y1zzr41KNzS0MEqR3-19" value="available_dates" style="swimlane;fontStyle=0;childLayout=stackLayout;horizontal=1;startSize=30;horizontalStack=0;resizeParent=1;resizeParentMax=0;resizeLast=0;collapsible=1;marginBottom=0;whiteSpace=wrap;html=1;rounded=1;swimlaneLine=1;" vertex="1" parent="1">
          <mxGeometry x="200" y="200" width="143" height="150" as="geometry" />
        </mxCell>
        <mxCell id="DQ1Y1zzr41KNzS0MEqR3-20" value="available_date_id" style="text;strokeColor=#d6b656;fillColor=#fff2cc;align=left;verticalAlign=middle;spacingLeft=4;spacingRight=4;overflow=hidden;points=[[0,0.5],[1,0.5]];portConstraint=eastwest;rotatable=0;whiteSpace=wrap;html=1;" vertex="1" parent="DQ1Y1zzr41KNzS0MEqR3-19">
          <mxGeometry y="30" width="143" height="30" as="geometry" />
        </mxCell>
        <mxCell id="DQ1Y1zzr41KNzS0MEqR3-21" value="available_date" style="text;strokeColor=none;fillColor=none;align=left;verticalAlign=middle;spacingLeft=4;spacingRight=4;overflow=hidden;points=[[0,0.5],[1,0.5]];portConstraint=eastwest;rotatable=0;whiteSpace=wrap;html=1;" vertex="1" parent="DQ1Y1zzr41KNzS0MEqR3-19">
          <mxGeometry y="60" width="143" height="30" as="geometry" />
        </mxCell>
        <mxCell id="DQ1Y1zzr41KNzS0MEqR3-22" value="department_id" style="text;strokeColor=#6c8ebf;fillColor=#dae8fc;align=left;verticalAlign=middle;spacingLeft=4;spacingRight=4;overflow=hidden;points=[[0,0.5],[1,0.5]];portConstraint=eastwest;rotatable=0;whiteSpace=wrap;html=1;" vertex="1" parent="DQ1Y1zzr41KNzS0MEqR3-19">
          <mxGeometry y="90" width="143" height="30" as="geometry" />
        </mxCell>
        <mxCell id="DQ1Y1zzr41KNzS0MEqR3-23" value="is_available" style="text;strokeColor=none;fillColor=none;align=left;verticalAlign=middle;spacingLeft=4;spacingRight=4;overflow=hidden;points=[[0,0.5],[1,0.5]];portConstraint=eastwest;rotatable=0;whiteSpace=wrap;html=1;" vertex="1" parent="DQ1Y1zzr41KNzS0MEqR3-19">
          <mxGeometry y="120" width="143" height="30" as="geometry" />
        </mxCell>
        <mxCell id="DQ1Y1zzr41KNzS0MEqR3-26" value="statuses" style="swimlane;fontStyle=0;childLayout=stackLayout;horizontal=1;startSize=30;horizontalStack=0;resizeParent=1;resizeParentMax=0;resizeLast=0;collapsible=1;marginBottom=0;whiteSpace=wrap;html=1;rounded=1;swimlaneLine=1;" vertex="1" parent="1">
          <mxGeometry x="587" y="10" width="143" height="90" as="geometry" />
        </mxCell>
        <mxCell id="DQ1Y1zzr41KNzS0MEqR3-27" value="status_id" style="text;strokeColor=#d6b656;fillColor=#fff2cc;align=left;verticalAlign=middle;spacingLeft=4;spacingRight=4;overflow=hidden;points=[[0,0.5],[1,0.5]];portConstraint=eastwest;rotatable=0;whiteSpace=wrap;html=1;" vertex="1" parent="DQ1Y1zzr41KNzS0MEqR3-26">
          <mxGeometry y="30" width="143" height="30" as="geometry" />
        </mxCell>
        <mxCell id="DQ1Y1zzr41KNzS0MEqR3-28" value="status_name" style="text;strokeColor=none;fillColor=none;align=left;verticalAlign=middle;spacingLeft=4;spacingRight=4;overflow=hidden;points=[[0,0.5],[1,0.5]];portConstraint=eastwest;rotatable=0;whiteSpace=wrap;html=1;" vertex="1" parent="DQ1Y1zzr41KNzS0MEqR3-26">
          <mxGeometry y="60" width="143" height="30" as="geometry" />
        </mxCell>
        <mxCell id="DQ1Y1zzr41KNzS0MEqR3-33" value="departments" style="swimlane;fontStyle=0;childLayout=stackLayout;horizontal=1;startSize=30;horizontalStack=0;resizeParent=1;resizeParentMax=0;resizeLast=0;collapsible=1;marginBottom=0;whiteSpace=wrap;html=1;rounded=1;swimlaneLine=1;" vertex="1" parent="1">
          <mxGeometry x="587" y="140" width="143" height="120" as="geometry" />
        </mxCell>
        <mxCell id="DQ1Y1zzr41KNzS0MEqR3-34" value="department_id" style="text;strokeColor=#d6b656;fillColor=#fff2cc;align=left;verticalAlign=middle;spacingLeft=4;spacingRight=4;overflow=hidden;points=[[0,0.5],[1,0.5]];portConstraint=eastwest;rotatable=0;whiteSpace=wrap;html=1;" vertex="1" parent="DQ1Y1zzr41KNzS0MEqR3-33">
          <mxGeometry y="30" width="143" height="30" as="geometry" />
        </mxCell>
        <mxCell id="DQ1Y1zzr41KNzS0MEqR3-35" value="department_name" style="text;strokeColor=none;fillColor=none;align=left;verticalAlign=middle;spacingLeft=4;spacingRight=4;overflow=hidden;points=[[0,0.5],[1,0.5]];portConstraint=eastwest;rotatable=0;whiteSpace=wrap;html=1;" vertex="1" parent="DQ1Y1zzr41KNzS0MEqR3-33">
          <mxGeometry y="60" width="143" height="30" as="geometry" />
        </mxCell>
        <mxCell id="DQ1Y1zzr41KNzS0MEqR3-36" value="room_number" style="text;strokeColor=none;fillColor=none;align=left;verticalAlign=middle;spacingLeft=4;spacingRight=4;overflow=hidden;points=[[0,0.5],[1,0.5]];portConstraint=eastwest;rotatable=0;whiteSpace=wrap;html=1;" vertex="1" parent="DQ1Y1zzr41KNzS0MEqR3-33">
          <mxGeometry y="90" width="143" height="30" as="geometry" />
        </mxCell>
        <mxCell id="DQ1Y1zzr41KNzS0MEqR3-45" style="edgeStyle=orthogonalEdgeStyle;rounded=0;orthogonalLoop=1;jettySize=auto;html=1;" edge="1" parent="1" source="DQ1Y1zzr41KNzS0MEqR3-6" target="DQ1Y1zzr41KNzS0MEqR3-14">
          <mxGeometry relative="1" as="geometry" />
        </mxCell>
        <mxCell id="DQ1Y1zzr41KNzS0MEqR3-46" style="edgeStyle=orthogonalEdgeStyle;rounded=0;orthogonalLoop=1;jettySize=auto;html=1;exitX=0;exitY=0.5;exitDx=0;exitDy=0;" edge="1" parent="1" source="DQ1Y1zzr41KNzS0MEqR3-27" target="DQ1Y1zzr41KNzS0MEqR3-17">
          <mxGeometry relative="1" as="geometry" />
        </mxCell>
        <mxCell id="DQ1Y1zzr41KNzS0MEqR3-47" style="edgeStyle=orthogonalEdgeStyle;rounded=0;orthogonalLoop=1;jettySize=auto;html=1;exitX=0;exitY=0.5;exitDx=0;exitDy=0;" edge="1" parent="1" source="DQ1Y1zzr41KNzS0MEqR3-34" target="DQ1Y1zzr41KNzS0MEqR3-18">
          <mxGeometry relative="1" as="geometry" />
        </mxCell>
        <mxCell id="DQ1Y1zzr41KNzS0MEqR3-48" style="edgeStyle=orthogonalEdgeStyle;rounded=0;orthogonalLoop=1;jettySize=auto;html=1;exitX=0;exitY=0.5;exitDx=0;exitDy=0;" edge="1" parent="1" source="DQ1Y1zzr41KNzS0MEqR3-34" target="DQ1Y1zzr41KNzS0MEqR3-22">
          <mxGeometry relative="1" as="geometry" />
        </mxCell>
        <mxCell id="DQ1Y1zzr41KNzS0MEqR3-52" style="edgeStyle=orthogonalEdgeStyle;rounded=0;orthogonalLoop=1;jettySize=auto;html=1;exitX=0;exitY=0.5;exitDx=0;exitDy=0;" edge="1" parent="1" source="DQ1Y1zzr41KNzS0MEqR3-34" target="bYDsQo14aCg1KLKc_yVK-33">
          <mxGeometry relative="1" as="geometry" />
        </mxCell>
        <mxCell id="DQ1Y1zzr41KNzS0MEqR3-53" style="edgeStyle=orthogonalEdgeStyle;rounded=0;orthogonalLoop=1;jettySize=auto;html=1;exitX=1;exitY=0.5;exitDx=0;exitDy=0;" edge="1" parent="1" source="DQ1Y1zzr41KNzS0MEqR3-6" target="bYDsQo14aCg1KLKc_yVK-45">
          <mxGeometry relative="1" as="geometry" />
        </mxCell>
        <mxCell id="DQ1Y1zzr41KNzS0MEqR3-54" style="edgeStyle=orthogonalEdgeStyle;rounded=0;orthogonalLoop=1;jettySize=auto;html=1;exitX=0;exitY=0.5;exitDx=0;exitDy=0;" edge="1" parent="1" source="DQ1Y1zzr41KNzS0MEqR3-34" target="bYDsQo14aCg1KLKc_yVK-55">
          <mxGeometry relative="1" as="geometry" />
        </mxCell>
        <mxCell id="DQ1Y1zzr41KNzS0MEqR3-55" value="" style="rounded=0;whiteSpace=wrap;html=1;fillColor=#fff2cc;strokeColor=#d6b656;" vertex="1" parent="1">
          <mxGeometry x="-10" y="297.5" width="30" height="20" as="geometry" />
        </mxCell>
        <mxCell id="DQ1Y1zzr41KNzS0MEqR3-56" value="" style="rounded=0;whiteSpace=wrap;html=1;fillColor=#dae8fc;strokeColor=#6c8ebf;" vertex="1" parent="1">
          <mxGeometry x="-10" y="327.5" width="30" height="20" as="geometry" />
        </mxCell>
        <mxCell id="DQ1Y1zzr41KNzS0MEqR3-57" value="Primary Key" style="text;html=1;align=center;verticalAlign=middle;whiteSpace=wrap;rounded=0;" vertex="1" parent="1">
          <mxGeometry x="20" y="295" width="80" height="25" as="geometry" />
        </mxCell>
        <mxCell id="DQ1Y1zzr41KNzS0MEqR3-59" value="Foreign Key" style="text;html=1;align=center;verticalAlign=middle;whiteSpace=wrap;rounded=0;" vertex="1" parent="1">
          <mxGeometry x="20" y="325" width="80" height="25" as="geometry" />
        </mxCell>
        <mxCell id="DQ1Y1zzr41KNzS0MEqR3-60" value="&lt;h1 style=&quot;margin-top: 0px;&quot;&gt;Users&lt;/h1&gt;&lt;div&gt;Хранит информацию о пользователях (ФИО и телефон).&lt;/div&gt;" style="text;html=1;whiteSpace=wrap;overflow=hidden;rounded=0;" vertex="1" parent="1">
          <mxGeometry x="-520" y="-70" width="180" height="120" as="geometry" />
        </mxCell>
        <mxCell id="DQ1Y1zzr41KNzS0MEqR3-61" value="&lt;h1 style=&quot;margin-top: 0px;&quot;&gt;Requests&lt;/h1&gt;&lt;div&gt;Хранит заявки пользователей, которые включают:&lt;/div&gt;&lt;div&gt;- Пользователь, который отправил заявку;&lt;/div&gt;&lt;div&gt;- Текст заявки;&lt;/div&gt;&lt;div&gt;- Выбранную дату приёма;&lt;/div&gt;&lt;div&gt;- Статус заявки;&lt;/div&gt;&lt;div&gt;- Кабинет, в который записан пользователь;&lt;/div&gt;&lt;div&gt;- Причину отклонения, если заявка была отклонена.&lt;/div&gt;" style="text;html=1;whiteSpace=wrap;overflow=hidden;rounded=0;" vertex="1" parent="1">
          <mxGeometry x="-350" y="-80" width="180" height="220" as="geometry" />
        </mxCell>
        <mxCell id="DQ1Y1zzr41KNzS0MEqR3-62" value="&lt;h1 style=&quot;margin-top: 0px;&quot;&gt;Available_dates&lt;/h1&gt;&lt;div&gt;Хранит доступные даты для записи, связанные с конкретными кабинетами.&lt;/div&gt;" style="text;html=1;whiteSpace=wrap;overflow=hidden;rounded=0;" vertex="1" parent="1">
          <mxGeometry x="-150" y="-80" width="180" height="220" as="geometry" />
        </mxCell>
        <mxCell id="DQ1Y1zzr41KNzS0MEqR3-63" value="&lt;h1 style=&quot;margin-top: 0px;&quot;&gt;Statuses&lt;/h1&gt;&lt;div&gt;Содержит возможные статусы заявок, такие как &quot;на рассмотрении&quot;, &quot;одобрено&quot; или &quot;отклонено&quot;.&lt;/div&gt;" style="text;html=1;whiteSpace=wrap;overflow=hidden;rounded=0;" vertex="1" parent="1">
          <mxGeometry x="-530" y="190" width="180" height="220" as="geometry" />
        </mxCell>
        <mxCell id="DQ1Y1zzr41KNzS0MEqR3-64" value="&lt;h1 style=&quot;margin-top: 0px;&quot;&gt;Departments&lt;/h1&gt;&lt;div&gt;Хранит информацию о кабинетах и их номерах.&lt;/div&gt;" style="text;html=1;whiteSpace=wrap;overflow=hidden;rounded=0;" vertex="1" parent="1">
          <mxGeometry x="-330" y="190" width="180" height="220" as="geometry" />
        </mxCell>
        <mxCell id="DQ1Y1zzr41KNzS0MEqR3-65" value="&lt;h1 style=&quot;margin-top: 0px;&quot;&gt;Mailing&lt;/h1&gt;&lt;div&gt;Подключение или отключение рассылки.&lt;/div&gt;" style="text;html=1;whiteSpace=wrap;overflow=hidden;rounded=0;" vertex="1" parent="1">
          <mxGeometry x="-150" y="180" width="180" height="220" as="geometry" />
        </mxCell>
        <mxCell id="DQ1Y1zzr41KNzS0MEqR3-66" value="&lt;h1 style=&quot;margin-top: 0px;&quot;&gt;Services&lt;/h1&gt;&lt;div&gt;Хранит информацию о предоставляемых услугах данного отделения.&lt;/div&gt;" style="text;html=1;whiteSpace=wrap;overflow=hidden;rounded=0;" vertex="1" parent="1">
          <mxGeometry x="-540" y="347.5" width="180" height="220" as="geometry" />
        </mxCell>
        <mxCell id="DQ1Y1zzr41KNzS0MEqR3-67" value="&lt;h1 style=&quot;margin-top: 0px;&quot;&gt;About&lt;/h1&gt;&lt;div&gt;Хранит информацию отдела (адрес, номер и рабочее время).&lt;/div&gt;" style="text;html=1;whiteSpace=wrap;overflow=hidden;rounded=0;" vertex="1" parent="1">
          <mxGeometry x="-340" y="340" width="180" height="100" as="geometry" />
        </mxCell>
        <mxCell id="DQ1Y1zzr41KNzS0MEqR3-68" value="&lt;h1 style=&quot;margin-top: 0px;&quot;&gt;FAQ&lt;/h1&gt;&lt;div&gt;Часто задаваемые вопросы и ответы на них.&lt;/div&gt;" style="text;html=1;whiteSpace=wrap;overflow=hidden;rounded=0;" vertex="1" parent="1">
          <mxGeometry x="-540" y="495" width="180" height="90" as="geometry" />
        </mxCell>
        <mxCell id="DQ1Y1zzr41KNzS0MEqR3-69" value="&lt;h1 style=&quot;margin-top: 0px;&quot;&gt;Contacts&lt;/h1&gt;&lt;div&gt;Хранит информацию о контактах отдела или его начальника (ФИО, должность, телефон и почта).&lt;/div&gt;" style="text;html=1;whiteSpace=wrap;overflow=hidden;rounded=0;" vertex="1" parent="1">
          <mxGeometry x="-340" y="490" width="180" height="110" as="geometry" />
        </mxCell>
      </root>
    </mxGraphModel>
  </diagram>
</mxfile>
